<?xml version="1.0" encoding="utf-8"?>
<!-- Generator: Adobe Illustrator 16.0.0, SVG Export Plug-In . SVG Version: 6.00 Build 0)  -->
<!DOCTYPE svg PUBLIC "-//W3C//DTD SVG 1.1//EN" "http://www.w3.org/Graphics/SVG/1.1/DTD/svg11.dtd">
<svg version="1.1" id="Layer_1" xmlns="http://www.w3.org/2000/svg" xmlns:xlink="http://www.w3.org/1999/xlink" x="0px" y="0px"
	 width="219.333px" height="47.995px" viewBox="0 0 219.333 47.995" enable-background="new 0 0 219.333 47.995"
	 xml:space="preserve">
<g>
	<path fill="#BCBEC0" d="M7.627,4.238h33.099h0.002v0.006c0.917,0,1.75,0.375,2.351,0.977c0.597,0.598,0.969,1.427,0.97,2.343h0.005
		v0.003v33.099v0.001h-0.005c-0.001,0.917-0.375,1.749-0.977,2.351c-0.598,0.598-1.427,0.968-2.342,0.97v0.006h-0.004H7.627H7.626
		v-0.006c-0.917,0-1.75-0.375-2.351-0.977c-0.598-0.598-0.969-1.427-0.97-2.343H4.299v-0.002V7.566V7.565h0.005
		c0.001-0.916,0.373-1.747,0.974-2.348L5.276,5.213c0.598-0.598,1.428-0.968,2.349-0.97V4.238H7.627L7.627,4.238z M40.726,7.216
		H7.627H7.625V7.21c-0.089,0-0.176,0.042-0.243,0.109H7.376C7.312,7.383,7.272,7.471,7.272,7.565h0.006v0.001v33.099v0.002H7.272
		c0,0.093,0.042,0.182,0.109,0.249c0.064,0.064,0.151,0.104,0.245,0.104v-0.005h0.001h33.099h0.004v0.005
		c0.092,0,0.181-0.042,0.248-0.108c0.064-0.064,0.104-0.152,0.104-0.245h-0.006v-0.001V7.566V7.563h0.006
		c0-0.093-0.042-0.182-0.109-0.249C40.91,7.251,40.822,7.21,40.728,7.21v0.006H40.726L40.726,7.216z"/>
	<path fill-rule="evenodd" clip-rule="evenodd" d="M6.391,4.49h33.099c1.012,0,1.839,0.827,1.839,1.839v33.099
		c0,1.012-0.827,1.839-1.839,1.839H6.391c-1.012,0-1.839-0.827-1.839-1.839V6.33C4.552,5.317,5.378,4.49,6.391,4.49"/>
	<path fill="#FFFFFF" d="M6.391,3h33.099h0.001v0.006c0.917,0.001,1.75,0.375,2.352,0.977c0.597,0.598,0.969,1.427,0.97,2.343h0.006
		V6.33v33.099v0.001h-0.006c0,0.917-0.375,1.75-0.976,2.351c-0.598,0.598-1.428,0.968-2.343,0.97v0.006h-0.003H6.391H6.389V42.75
		c-0.917,0-1.75-0.374-2.351-0.976c-0.597-0.598-0.969-1.426-0.97-2.343H3.062v-0.003V6.33V6.328h0.006
		C3.069,5.413,3.441,4.582,4.042,3.98L4.039,3.977c0.598-0.598,1.428-0.969,2.348-0.971V3H6.391L6.391,3z M39.489,5.98H6.391H6.387
		V5.974c-0.089,0-0.175,0.042-0.242,0.108H6.139C6.075,6.147,6.035,6.234,6.035,6.328h0.006V6.33v33.099v0.003H6.035
		c0,0.093,0.042,0.182,0.108,0.249c0.064,0.063,0.151,0.104,0.245,0.104v-0.006h0.002h33.099h0.003v0.006
		c0.093,0,0.182-0.042,0.249-0.109c0.064-0.063,0.104-0.151,0.104-0.245h-0.006v-0.001V6.33V6.326h0.006
		c0-0.092-0.042-0.182-0.108-0.249c-0.064-0.064-0.151-0.104-0.246-0.104V5.98H39.489L39.489,5.98z"/>
	<polygon fill-rule="evenodd" clip-rule="evenodd" fill="#A6CE39" points="9.186,34.997 15.134,34.997 15.134,36.849 9.186,36.849 
		9.186,34.997 	"/>
	<path fill-rule="evenodd" clip-rule="evenodd" fill="#A6CE39" d="M16.374,34.994c1.983,0,3.966,0,5.948,0c0,0.618,0,1.236,0,1.853
		c-1.982,0-3.964,0-5.948,0C16.374,36.23,16.374,35.612,16.374,34.994"/>
	<path fill-rule="evenodd" clip-rule="evenodd" fill="#A6CE39" d="M23.56,34.994c1.982,0,3.966,0,5.948,0c0,0.618,0,1.236,0,1.853
		c-1.982,0-3.965,0-5.948,0C23.56,36.23,23.56,35.612,23.56,34.994"/>
	<polygon fill-rule="evenodd" clip-rule="evenodd" fill="#A6CE39" points="30.746,34.997 36.693,34.997 36.693,36.849 
		30.746,36.849 30.746,34.997 	"/>
	<path fill-rule="evenodd" clip-rule="evenodd" fill="#A6CE39" d="M9.188,32.66c1.982,0,3.966,0,5.948,0c0,0.617,0,1.234,0,1.852
		c-1.982,0-3.965,0-5.948,0C9.188,33.895,9.188,33.277,9.188,32.66"/>
	<path fill-rule="evenodd" clip-rule="evenodd" fill="#A6CE39" d="M16.375,32.658c1.983,0,3.966,0,5.948,0c0,0.618,0,1.236,0,1.853
		c-1.982,0-3.965,0-5.948,0C16.375,33.894,16.375,33.276,16.375,32.658"/>
	<path fill-rule="evenodd" clip-rule="evenodd" fill="#A6CE39" d="M23.561,32.658c1.983,0,3.966,0,5.948,0c0,0.618,0,1.236,0,1.853
		c-1.982,0-3.964,0-5.948,0C23.561,33.894,23.561,33.276,23.561,32.658"/>
	<path fill-rule="evenodd" clip-rule="evenodd" fill="#A6CE39" d="M30.747,32.66c1.983,0,3.966,0,5.948,0c0,0.617,0,1.234,0,1.852
		c-1.982,0-3.965,0-5.948,0C30.747,33.895,30.747,33.277,30.747,32.66"/>
	<path fill-rule="evenodd" clip-rule="evenodd" fill="#A6CE39" d="M9.188,30.325c1.982,0,3.966,0,5.948,0c0,0.617,0,1.234,0,1.852
		c-1.982,0-3.965,0-5.948,0C9.188,31.559,9.188,30.942,9.188,30.325"/>
	<path fill-rule="evenodd" clip-rule="evenodd" fill="#A6CE39" d="M16.375,30.324c1.983,0,3.966,0,5.948,0c0,0.617,0,1.234,0,1.852
		c-1.982,0-3.965,0-5.948,0C16.375,31.559,16.375,30.941,16.375,30.324"/>
	<path fill-rule="evenodd" clip-rule="evenodd" fill="#A6CE39" d="M23.561,30.324c1.983,0,3.966,0,5.948,0c0,0.617,0,1.234,0,1.852
		c-1.982,0-3.964,0-5.948,0C23.561,31.559,23.561,30.941,23.561,30.324"/>
	<path fill-rule="evenodd" clip-rule="evenodd" fill="#A6CE39" d="M30.747,30.325c1.983,0,3.966,0,5.948,0c0,0.617,0,1.234,0,1.852
		c-1.982,0-3.965,0-5.948,0C30.747,31.559,30.747,30.942,30.747,30.325"/>
	<path fill-rule="evenodd" clip-rule="evenodd" fill="#A6CE39" d="M9.188,27.99c1.982,0,3.966,0,5.948,0c0,0.617,0,1.235,0,1.853
		c-1.982,0-3.965,0-5.948,0C9.188,29.225,9.188,28.607,9.188,27.99"/>
	<path fill-rule="evenodd" clip-rule="evenodd" fill="#A6CE39" d="M16.375,27.989c1.983,0,3.966,0,5.948,0c0,0.617,0,1.234,0,1.853
		c-1.982,0-3.965,0-5.948,0C16.375,29.223,16.375,28.606,16.375,27.989"/>
	<path fill-rule="evenodd" clip-rule="evenodd" fill="#A6CE39" d="M23.561,27.989c1.983,0,3.966,0,5.948,0c0,0.617,0,1.234,0,1.853
		c-1.982,0-3.964,0-5.948,0C23.561,29.223,23.561,28.606,23.561,27.989"/>
	<path fill-rule="evenodd" clip-rule="evenodd" fill="#A6CE39" d="M30.747,27.99c1.983,0,3.966,0,5.948,0c0,0.617,0,1.235,0,1.853
		c-1.982,0-3.965,0-5.948,0C30.747,29.225,30.747,28.607,30.747,27.99"/>
	<path fill-rule="evenodd" clip-rule="evenodd" fill="#FFCB05" d="M9.188,25.655c1.982,0,3.966,0,5.948,0c0,0.618,0,1.234,0,1.852
		c-1.982,0-3.965,0-5.948,0C9.188,26.889,9.188,26.272,9.188,25.655"/>
	<path fill-rule="evenodd" clip-rule="evenodd" fill="#FFCB05" d="M16.375,25.654c1.983,0,3.966,0,5.948,0c0,0.617,0,1.235,0,1.852
		c-1.982,0-3.965,0-5.948,0C16.375,26.889,16.375,26.271,16.375,25.654"/>
	<path fill-rule="evenodd" clip-rule="evenodd" fill="#FFCB05" d="M30.747,25.655c1.983,0,3.966,0,5.948,0c0,0.618,0,1.234,0,1.852
		c-1.982,0-3.965,0-5.948,0C30.747,26.889,30.747,26.272,30.747,25.655"/>
	<path fill-rule="evenodd" clip-rule="evenodd" fill="#FFCB05" d="M9.188,23.32c1.982,0,3.966,0,5.948,0c0,0.618,0,1.234,0,1.852
		c-1.982,0-3.965,0-5.948,0C9.188,24.554,9.188,23.938,9.188,23.32"/>
	<path fill-rule="evenodd" clip-rule="evenodd" fill="#FFCB05" d="M16.375,23.319c1.983,0,3.966,0,5.948,0c0,0.618,0,1.234,0,1.852
		c-1.982,0-3.965,0-5.948,0C16.375,24.553,16.375,23.937,16.375,23.319"/>
	<path fill-rule="evenodd" clip-rule="evenodd" fill="#FFCB05" d="M30.747,23.32c1.983,0,3.966,0,5.948,0c0,0.618,0,1.234,0,1.852
		c-1.982,0-3.965,0-5.948,0C30.747,24.554,30.747,23.938,30.747,23.32"/>
	<path fill-rule="evenodd" clip-rule="evenodd" fill="#FFCB05" d="M9.188,20.985c1.982,0,3.966,0,5.948,0c0,0.617,0,1.235,0,1.852
		c-1.982,0-3.965,0-5.948,0C9.188,22.22,9.188,21.602,9.188,20.985"/>
	<path fill-rule="evenodd" clip-rule="evenodd" fill="#FFCB05" d="M16.375,20.984c1.983,0,3.966,0,5.948,0c0,0.617,0,1.234,0,1.852
		c-1.982,0-3.965,0-5.948,0C16.375,22.218,16.375,21.601,16.375,20.984"/>
	<path fill-rule="evenodd" clip-rule="evenodd" fill="#FFCB05" d="M30.747,20.985c1.983,0,3.966,0,5.948,0c0,0.617,0,1.235,0,1.852
		c-1.982,0-3.965,0-5.948,0C30.747,22.22,30.747,21.602,30.747,20.985"/>
	<path fill-rule="evenodd" clip-rule="evenodd" fill="#FFCB05" d="M9.188,18.649c1.982,0,3.966,0,5.948,0c0,0.618,0,1.235,0,1.852
		c-1.982,0-3.965,0-5.948,0C9.188,19.884,9.188,19.267,9.188,18.649"/>
	<path fill-rule="evenodd" clip-rule="evenodd" fill="#FFCB05" d="M16.375,18.648c1.983,0,3.966,0,5.948,0c0,0.617,0,1.235,0,1.853
		c-1.982,0-3.965,0-5.948,0C16.375,19.883,16.375,19.266,16.375,18.648"/>
	<path fill-rule="evenodd" clip-rule="evenodd" fill="#FFCB05" d="M30.747,18.649c1.983,0,3.966,0,5.948,0c0,0.618,0,1.235,0,1.852
		c-1.982,0-3.965,0-5.948,0C30.747,19.884,30.747,19.267,30.747,18.649"/>
	<path fill-rule="evenodd" clip-rule="evenodd" fill="#ED1C24" d="M9.188,16.314c1.982,0,3.966,0,5.948,0c0,0.617,0,1.235,0,1.852
		c-1.982,0-3.965,0-5.948,0C9.188,17.549,9.188,16.932,9.188,16.314"/>
	<path fill-rule="evenodd" clip-rule="evenodd" fill="#ED1C24" d="M16.375,16.313c1.983,0,3.966,0,5.948,0c0,0.618,0,1.235,0,1.852
		c-1.982,0-3.965,0-5.948,0C16.375,17.548,16.375,16.931,16.375,16.313"/>
	<path fill-rule="evenodd" clip-rule="evenodd" fill="#ED1C24" d="M30.747,16.314c1.983,0,3.966,0,5.948,0c0,0.617,0,1.235,0,1.852
		c-1.982,0-3.965,0-5.948,0C30.747,17.549,30.747,16.932,30.747,16.314"/>
	<path fill-rule="evenodd" clip-rule="evenodd" fill="#ED1C24" d="M9.188,13.98c1.982,0,3.966,0,5.948,0c0,0.616,0,1.234,0,1.852
		c-1.982,0-3.965,0-5.948,0C9.188,15.214,9.188,14.596,9.188,13.98"/>
	<path fill-rule="evenodd" clip-rule="evenodd" fill="#ED1C24" d="M30.747,13.98c1.983,0,3.966,0,5.948,0c0,0.616,0,1.234,0,1.852
		c-1.982,0-3.965,0-5.948,0C30.747,15.214,30.747,14.596,30.747,13.98"/>
	<path fill-rule="evenodd" clip-rule="evenodd" fill="#ED1C24" d="M9.188,11.644c1.982,0,3.966,0,5.948,0c0,0.618,0,1.235,0,1.853
		c-1.982,0-3.965,0-5.948,0C9.188,12.879,9.188,12.262,9.188,11.644"/>
	<path fill-rule="evenodd" clip-rule="evenodd" fill="#ED1C24" d="M30.747,11.644c1.983,0,3.966,0,5.948,0c0,0.618,0,1.235,0,1.853
		c-1.982,0-3.965,0-5.948,0C30.747,12.879,30.747,12.262,30.747,11.644"/>
	<polygon fill-rule="evenodd" clip-rule="evenodd" fill="#ED1C24" points="9.186,9.31 15.134,9.31 15.134,11.163 9.186,11.163 
		9.186,9.31 	"/>
	<polygon fill-rule="evenodd" clip-rule="evenodd" fill="#ED1C24" points="30.746,9.31 36.693,9.31 36.693,11.163 30.746,11.163 
		30.746,9.31 	"/>
	<path fill-rule="evenodd" clip-rule="evenodd" fill="#FFFFFF" d="M60.544,30.305l-2.679-0.001L67.911,4.447l3.055,0.001
		l9.989,25.867l-2.716-0.001l-3.087-8.119L63.64,22.19L60.544,30.305L60.544,30.305z M74.262,19.866L69.365,6.879l-4.838,12.981
		L74.262,19.866L74.262,19.866z M79.328,4.453l2.539,0.002l-0.008,16.355c-0.001,1.267,0.048,2.218,0.151,2.843
		c0.103,0.631,0.266,1.182,0.502,1.667c0.466,0.989,1.138,1.759,2.035,2.311c0.892,0.558,1.904,0.838,3.031,0.838
		c1.952,0,3.395-0.666,4.335-1.998c0.934-1.328,1.401-3.395,1.403-6.189l0.008-15.822l2.504,0l-0.009,16.447
		c-0.001,3.352-0.669,5.849-2.003,7.497c-1.329,1.642-3.354,2.465-6.063,2.464c-2.904-0.001-5.031-0.81-6.394-2.422
		c-1.364-1.606-2.042-4.124-2.04-7.548L79.328,4.453L79.328,4.453z M99.592,6.932l-0.011,20.962l5.274,0.003
		c3.292,0.001,5.826-0.919,7.604-2.768c1.777-1.848,2.668-4.465,2.67-7.849c0.001-1.697-0.301-3.261-0.9-4.691
		c-0.606-1.432-1.472-2.639-2.593-3.609c-0.842-0.734-1.783-1.262-2.825-1.571c-1.042-0.315-2.557-0.474-4.546-0.476L99.592,6.932
		L99.592,6.932z M97.09,4.463l7.353,0.004c2.025,0,3.728,0.202,5.105,0.609c1.381,0.401,2.599,1.043,3.647,1.936
		c1.484,1.244,2.63,2.766,3.448,4.566c0.817,1.801,1.223,3.724,1.221,5.772c0,2.286-0.45,4.364-1.354,6.243
		c-0.898,1.879-2.172,3.407-3.821,4.588c-1.087,0.769-2.268,1.32-3.535,1.652c-1.267,0.333-3.22,0.495-5.863,0.495l-6.213-0.003
		L97.09,4.463L97.09,4.463z M120.657,30.336l-2.54-0.001l0.013-25.861l2.541,0.001L120.657,30.336L120.657,30.336z M123.642,17.286
		c-0.001,3.146,1.021,5.791,3.071,7.925c2.047,2.129,4.575,3.197,7.581,3.199c2.934,0.001,5.414-1.076,7.44-3.229
		c2.025-2.155,3.039-4.811,3.04-7.957c0.002-2.94-1.038-5.468-3.123-7.597c-2.079-2.129-4.587-3.192-7.527-3.193
		c-1.194-0.001-2.346,0.206-3.449,0.611c-1.11,0.411-2.129,1.011-3.069,1.804c-1.231,1.037-2.202,2.308-2.906,3.817
		C123.995,14.17,123.643,15.709,123.642,17.286L123.642,17.286z M120.981,17.249c0.001-1.8,0.347-3.522,1.04-5.154
		c0.698-1.634,1.698-3.096,3.015-4.386c1.268-1.242,2.663-2.174,4.184-2.804c1.522-0.624,3.172-0.938,4.948-0.937
		c1.806,0.001,3.484,0.317,5.03,0.954c1.546,0.632,2.958,1.578,4.236,2.833c1.314,1.291,2.302,2.735,2.963,4.335
		c0.659,1.602,0.992,3.323,0.99,5.173c-0.001,1.831-0.287,3.516-0.857,5.048c-0.564,1.534-1.419,2.928-2.554,4.182
		c-1.316,1.448-2.803,2.533-4.464,3.266c-1.655,0.733-3.456,1.102-5.396,1.101c-3.716-0.003-6.837-1.307-9.357-3.922
		C122.238,24.323,120.979,21.092,120.981,17.249L120.981,17.249z M147.929,4.313l10.584,0.006l4.078,15.842l4.075-15.839
		l10.548,0.006l-0.014,26.037l-6.57-0.003l0.011-19.854l-5.109,19.851l-5.947-0.003L154.516,10.5l-0.012,19.853l-6.589-0.003
		L147.929,4.313L147.929,4.313z M178.904,4.33l8.063,0.004l-0.014,26.037l-8.063-0.005L178.904,4.33L178.904,4.33z M187.189,4.334
		l8.856,0.004l4.615,8.011l4.479-8.006l8.776,0.004l-8.104,12.605l8.855,13.433l-9.039-0.005l-5.129-8.368l-5.158,8.363
		l-8.982-0.004l8.99-13.563L187.189,4.334L187.189,4.334z"/>
	<path fill-rule="evenodd" clip-rule="evenodd" fill="#FFFFFF" d="M60.544,30.331h-2.68L67.897,4.47h3.055l10.002,25.861h-2.715
		l-3.092-8.117H63.635L60.544,30.331L60.544,30.331z M74.256,19.886L69.352,6.901l-4.832,12.985H74.256L74.256,19.886z M79.313,4.47
		h2.54v16.356c0,1.266,0.049,2.218,0.152,2.842c0.103,0.63,0.267,1.182,0.503,1.667c0.466,0.989,1.139,1.758,2.037,2.31
		c0.891,0.558,1.903,0.836,3.031,0.836c1.952,0,3.395-0.667,4.334-2c0.933-1.328,1.4-3.396,1.4-6.19V4.47h2.503v16.447
		c0,3.351-0.667,5.85-2,7.498c-1.328,1.643-3.352,2.467-6.062,2.467c-2.904,0-5.033-0.807-6.396-2.418
		c-1.365-1.606-2.043-4.123-2.043-7.547V4.47L79.313,4.47z M99.579,6.938V27.9h5.274c3.292,0,5.825-0.921,7.601-2.771
		c1.776-1.849,2.667-4.467,2.667-7.851c0-1.697-0.303-3.262-0.902-4.692c-0.606-1.431-1.474-2.637-2.595-3.607
		c-0.843-0.733-1.783-1.261-2.825-1.569c-1.043-0.315-2.558-0.473-4.547-0.473H99.579L99.579,6.938z M97.075,4.47h7.353
		c2.025,0,3.728,0.2,5.104,0.607c1.382,0.4,2.601,1.042,3.649,1.934c1.485,1.243,2.632,2.764,3.45,4.564
		c0.818,1.8,1.225,3.722,1.225,5.771c0,2.285-0.448,4.365-1.352,6.244c-0.896,1.88-2.17,3.407-3.819,4.589
		c-1.085,0.77-2.267,1.321-3.534,1.655c-1.268,0.333-3.22,0.497-5.862,0.497h-6.214V4.47L97.075,4.47z M120.657,30.331h-2.541V4.47
		h2.541V30.331L120.657,30.331z M123.635,17.279c0,3.146,1.024,5.79,3.074,7.924c2.049,2.127,4.577,3.194,7.583,3.194
		c2.935,0,5.415-1.079,7.438-3.232c2.025-2.157,3.037-4.813,3.037-7.958c0-2.94-1.042-5.468-3.128-7.596
		c-2.08-2.128-4.589-3.189-7.529-3.189c-1.194,0-2.346,0.207-3.449,0.612c-1.109,0.412-2.127,1.013-3.067,1.807
		c-1.23,1.037-2.201,2.309-2.903,3.819C123.986,14.164,123.635,15.703,123.635,17.279L123.635,17.279z M120.974,17.242
		c0-1.799,0.345-3.521,1.036-5.152c0.697-1.637,1.697-3.097,3.013-4.389c1.267-1.242,2.662-2.176,4.183-2.806
		c1.522-0.625,3.171-0.939,4.947-0.939c1.807,0,3.485,0.314,5.031,0.951c1.546,0.631,2.959,1.576,4.237,2.832
		c1.316,1.29,2.304,2.733,2.965,4.333c0.66,1.6,0.993,3.322,0.993,5.17c0,1.832-0.285,3.517-0.854,5.05
		c-0.563,1.534-1.418,2.928-2.552,4.183c-1.316,1.449-2.801,2.534-4.462,3.268c-1.654,0.733-3.455,1.104-5.395,1.104
		c-3.716,0-6.838-1.303-9.36-3.917C122.235,24.317,120.974,21.086,120.974,17.242L120.974,17.242z M147.916,4.294H158.5l4.086,15.84
		l4.068-15.84h10.547v26.037h-6.571V10.478l-5.098,19.854h-5.947l-5.08-19.854v19.854h-6.589V4.294L147.916,4.294z M178.89,4.294
		h8.063v26.037h-8.063V4.294L178.89,4.294z M187.174,4.294h8.857l4.619,8.007l4.474-8.007h8.777l-8.099,12.608l8.863,13.428h-9.039
		l-5.134-8.366l-5.153,8.366h-8.983l8.983-13.567L187.174,4.294L187.174,4.294z"/>
	<path fill="#FFFFFF" d="M57.864,43.039v-6.287h0.702v0.59c0.165-0.231,0.352-0.404,0.561-0.52c0.208-0.115,0.46-0.175,0.757-0.175
		c0.388,0,0.73,0.102,1.027,0.301c0.298,0.2,0.521,0.481,0.672,0.846c0.152,0.364,0.228,0.762,0.228,1.196
		c0,0.465-0.083,0.885-0.251,1.257c-0.167,0.373-0.41,0.657-0.728,0.856c-0.318,0.198-0.653,0.296-1.004,0.296
		c-0.257,0-0.486-0.054-0.691-0.162c-0.205-0.108-0.372-0.246-0.503-0.411v2.211H57.864L57.864,43.039z M58.561,39.05
		c0,0.584,0.118,1.018,0.355,1.298c0.237,0.278,0.525,0.419,0.861,0.419c0.342,0,0.635-0.145,0.879-0.436
		c0.244-0.289,0.367-0.738,0.367-1.346c0-0.58-0.12-1.012-0.358-1.301c-0.238-0.288-0.523-0.433-0.853-0.433
		c-0.329,0-0.62,0.154-0.873,0.46C58.687,38.019,58.561,38.466,58.561,39.05L58.561,39.05z M69.959,41.297v-0.668
		c-0.355,0.515-0.836,0.77-1.443,0.77c-0.268,0-0.519-0.051-0.751-0.154c-0.233-0.102-0.405-0.231-0.518-0.386
		c-0.114-0.157-0.193-0.347-0.238-0.572c-0.032-0.152-0.047-0.392-0.047-0.72v-2.816h0.77v2.521c0,0.402,0.016,0.673,0.047,0.813
		c0.05,0.203,0.152,0.361,0.309,0.478c0.158,0.115,0.352,0.172,0.583,0.172c0.231,0,0.447-0.059,0.65-0.177
		c0.203-0.119,0.347-0.281,0.43-0.484c0.085-0.204,0.127-0.501,0.127-0.887v-2.437h0.77v4.546H69.959L69.959,41.297z M76.806,41.297
		h-0.714v-6.276h0.77v2.239c0.326-0.408,0.741-0.613,1.245-0.613c0.281,0,0.545,0.058,0.794,0.17
		c0.25,0.113,0.455,0.271,0.617,0.475c0.161,0.205,0.288,0.451,0.379,0.739c0.092,0.289,0.137,0.597,0.137,0.924
		c0,0.78-0.193,1.382-0.579,1.807c-0.384,0.426-0.847,0.637-1.387,0.637c-0.536,0-0.957-0.223-1.263-0.672V41.297L76.806,41.297z
		 M76.797,38.99c0,0.545,0.074,0.938,0.222,1.181c0.243,0.398,0.571,0.597,0.985,0.597c0.337,0,0.629-0.147,0.874-0.439
		c0.245-0.293,0.368-0.729,0.368-1.309c0-0.593-0.118-1.031-0.353-1.313c-0.235-0.283-0.52-0.424-0.854-0.424
		c-0.337,0-0.628,0.146-0.874,0.438C76.92,38.013,76.797,38.436,76.797,38.99L76.797,38.99z M85.194,41.297v-6.276h0.771v6.276
		H85.194L85.194,41.297z M91.403,35.909v-0.887h0.771v0.887H91.403L91.403,35.909z M91.403,41.297v-4.546h0.771v4.546H91.403
		L91.403,41.297z M100.554,39.631l0.757,0.1c-0.083,0.521-0.294,0.931-0.636,1.226c-0.34,0.295-0.76,0.442-1.257,0.442
		c-0.621,0-1.122-0.203-1.499-0.609c-0.378-0.406-0.568-0.989-0.568-1.75c0-0.49,0.082-0.92,0.244-1.288
		c0.164-0.369,0.411-0.645,0.744-0.829c0.332-0.184,0.694-0.277,1.084-0.277c0.494,0,0.899,0.127,1.211,0.377
		c0.315,0.249,0.516,0.603,0.605,1.063l-0.75,0.116c-0.071-0.306-0.197-0.535-0.378-0.689c-0.181-0.154-0.4-0.231-0.657-0.231
		c-0.389,0-0.705,0.139-0.947,0.418c-0.243,0.278-0.364,0.717-0.364,1.319c0,0.611,0.117,1.055,0.352,1.333
		c0.233,0.276,0.539,0.415,0.916,0.415c0.302,0,0.554-0.094,0.757-0.279C100.372,40.302,100.5,40.018,100.554,39.631L100.554,39.631
		z M106.214,35.909v-0.887h0.772v0.887H106.214L106.214,35.909z M106.214,41.297v-4.546h0.772v4.546H106.214L106.214,41.297z
		 M115.348,41.297v-0.574c-0.288,0.451-0.711,0.676-1.271,0.676c-0.362,0-0.695-0.099-0.999-0.299
		c-0.304-0.199-0.54-0.478-0.707-0.837c-0.167-0.358-0.25-0.768-0.25-1.234c0-0.453,0.076-0.866,0.226-1.234
		c0.152-0.371,0.378-0.654,0.681-0.85c0.302-0.197,0.641-0.297,1.016-0.297c0.273,0,0.517,0.06,0.73,0.175
		c0.215,0.116,0.389,0.266,0.523,0.451v-2.251h0.766v6.276H115.348L115.348,41.297z M112.912,39.028
		c0,0.583,0.124,1.019,0.368,1.306c0.246,0.288,0.536,0.433,0.87,0.433c0.336,0,0.623-0.139,0.857-0.414
		c0.236-0.275,0.354-0.695,0.354-1.261c0-0.622-0.12-1.078-0.36-1.369c-0.239-0.292-0.534-0.437-0.886-0.437
		c-0.342,0-0.629,0.14-0.858,0.42C113.028,37.985,112.912,38.426,112.912,39.028L112.912,39.028z M124.482,40.736
		c-0.287,0.242-0.562,0.414-0.824,0.514c-0.265,0.099-0.548,0.149-0.851,0.149c-0.5,0-0.883-0.121-1.151-0.366
		c-0.268-0.243-0.402-0.557-0.402-0.935c0-0.223,0.05-0.426,0.152-0.611c0.101-0.184,0.234-0.331,0.397-0.443
		c0.165-0.11,0.349-0.195,0.555-0.252c0.151-0.04,0.379-0.078,0.684-0.115c0.622-0.074,1.082-0.162,1.375-0.266
		c0.002-0.105,0.004-0.172,0.004-0.2c0-0.314-0.073-0.537-0.22-0.664c-0.195-0.175-0.489-0.262-0.877-0.262
		c-0.362,0-0.629,0.063-0.804,0.19c-0.172,0.127-0.299,0.352-0.382,0.675l-0.753-0.104c0.069-0.32,0.182-0.583,0.338-0.78
		c0.156-0.198,0.384-0.352,0.681-0.459c0.296-0.106,0.64-0.161,1.032-0.161c0.388,0,0.703,0.047,0.945,0.139
		c0.243,0.091,0.421,0.206,0.537,0.344c0.114,0.139,0.193,0.313,0.24,0.525c0.024,0.131,0.038,0.367,0.038,0.709v1.028
		c0,0.718,0.016,1.17,0.049,1.359c0.032,0.19,0.098,0.373,0.194,0.546h-0.805C124.556,41.137,124.504,40.951,124.482,40.736
		L124.482,40.736z M124.418,39.015c-0.281,0.116-0.7,0.212-1.259,0.293c-0.317,0.045-0.542,0.096-0.672,0.153
		c-0.132,0.057-0.233,0.141-0.304,0.251c-0.072,0.109-0.107,0.231-0.107,0.366c0,0.206,0.078,0.376,0.233,0.514
		c0.155,0.136,0.383,0.205,0.683,0.205c0.297,0,0.561-0.064,0.792-0.195c0.231-0.13,0.402-0.308,0.51-0.533
		c0.083-0.173,0.125-0.431,0.125-0.77V39.015L124.418,39.015z M133.581,41.297v-0.574c-0.288,0.451-0.712,0.676-1.271,0.676
		c-0.362,0-0.695-0.099-0.999-0.299c-0.304-0.199-0.54-0.478-0.708-0.837c-0.167-0.358-0.25-0.768-0.25-1.234
		c0-0.453,0.076-0.866,0.227-1.234c0.152-0.371,0.378-0.654,0.68-0.85c0.303-0.197,0.642-0.297,1.016-0.297
		c0.273,0,0.517,0.06,0.73,0.175c0.215,0.116,0.389,0.266,0.523,0.451v-2.251h0.766v6.276H133.581L133.581,41.297z M131.144,39.028
		c0,0.583,0.123,1.019,0.369,1.306c0.245,0.288,0.535,0.433,0.869,0.433c0.336,0,0.623-0.139,0.858-0.414s0.354-0.695,0.354-1.261
		c0-0.622-0.12-1.078-0.36-1.369c-0.239-0.292-0.534-0.437-0.887-0.437c-0.342,0-0.628,0.14-0.858,0.42
		C131.259,37.985,131.144,38.426,131.144,39.028L131.144,39.028z M142.859,39.833l0.796,0.097c-0.125,0.467-0.357,0.828-0.697,1.085
		c-0.341,0.255-0.774,0.384-1.302,0.384c-0.665,0-1.191-0.205-1.581-0.614c-0.39-0.409-0.584-0.983-0.584-1.722
		c0-0.766,0.197-1.359,0.59-1.782c0.395-0.422,0.905-0.635,1.533-0.635c0.607,0,1.104,0.208,1.489,0.622
		c0.386,0.413,0.578,0.996,0.578,1.746c0,0.046-0.001,0.116-0.005,0.207h-3.389c0.027,0.5,0.169,0.883,0.423,1.146
		c0.254,0.266,0.57,0.399,0.95,0.399c0.282,0,0.522-0.075,0.724-0.224C142.584,40.396,142.742,40.159,142.859,39.833L142.859,39.833
		z M140.33,38.587h2.537c-0.032-0.381-0.131-0.669-0.29-0.859c-0.245-0.296-0.564-0.446-0.954-0.446
		c-0.354,0-0.652,0.119-0.893,0.355C140.489,37.874,140.356,38.191,140.33,38.587L140.33,38.587z M154.475,40.532l-0.728,0.927
		c-0.356-0.173-0.699-0.413-1.027-0.718c-0.255,0.228-0.523,0.396-0.81,0.505c-0.285,0.109-0.624,0.163-1.019,0.163
		c-0.782,0-1.369-0.22-1.764-0.659c-0.306-0.339-0.457-0.731-0.457-1.173c0-0.402,0.119-0.764,0.358-1.084
		c0.24-0.322,0.598-0.602,1.074-0.837c-0.213-0.254-0.375-0.498-0.483-0.727c-0.108-0.229-0.162-0.447-0.162-0.653
		c0-0.378,0.152-0.701,0.456-0.964c0.304-0.264,0.736-0.396,1.299-0.396c0.542,0,0.966,0.139,1.271,0.415s0.458,0.615,0.458,1.014
		c0,0.254-0.075,0.496-0.228,0.724c-0.15,0.229-0.455,0.486-0.916,0.775l0.874,1.151c0.102-0.182,0.191-0.42,0.266-0.714
		l1.087,0.247c-0.107,0.386-0.202,0.667-0.283,0.846c-0.078,0.178-0.165,0.327-0.256,0.447c0.134,0.126,0.307,0.264,0.521,0.414
		C154.219,40.384,154.375,40.482,154.475,40.532L154.475,40.532z M151.201,37.12l0.326-0.249c0.238-0.185,0.358-0.369,0.358-0.552
		c0-0.155-0.059-0.287-0.174-0.395c-0.115-0.107-0.271-0.163-0.469-0.163c-0.19,0-0.34,0.049-0.449,0.144
		c-0.108,0.095-0.163,0.206-0.163,0.331c0,0.149,0.092,0.33,0.274,0.539L151.201,37.12L151.201,37.12z M150.73,38.424
		c-0.277,0.14-0.484,0.308-0.621,0.506c-0.138,0.197-0.206,0.397-0.206,0.604c0,0.26,0.086,0.472,0.255,0.636
		c0.17,0.164,0.398,0.245,0.683,0.245c0.189,0,0.37-0.037,0.544-0.111c0.174-0.073,0.364-0.196,0.569-0.368L150.73,38.424
		L150.73,38.424z M162.546,39.833l0.796,0.097c-0.126,0.467-0.357,0.828-0.696,1.085c-0.341,0.255-0.774,0.384-1.302,0.384
		c-0.665,0-1.192-0.205-1.581-0.614c-0.391-0.409-0.585-0.983-0.585-1.722c0-0.766,0.197-1.359,0.59-1.782
		c0.395-0.422,0.905-0.635,1.533-0.635c0.607,0,1.104,0.208,1.489,0.622c0.386,0.413,0.578,0.996,0.578,1.746
		c0,0.046-0.001,0.116-0.004,0.207h-3.391c0.027,0.5,0.17,0.883,0.424,1.146c0.255,0.266,0.57,0.399,0.95,0.399
		c0.281,0,0.523-0.075,0.723-0.224C162.272,40.396,162.429,40.159,162.546,39.833L162.546,39.833z M160.016,38.587h2.539
		c-0.034-0.381-0.131-0.669-0.291-0.859c-0.245-0.296-0.564-0.446-0.954-0.446c-0.354,0-0.651,0.119-0.893,0.355
		C160.176,37.874,160.042,38.191,160.016,38.587L160.016,38.587z M169.814,41.297l-1.73-4.546h0.814l0.976,2.723
		c0.105,0.293,0.202,0.599,0.291,0.916c0.069-0.24,0.164-0.528,0.287-0.865l1.011-2.773h0.792l-1.722,4.546H169.814L169.814,41.297z
		 M180.286,39.833l0.797,0.097c-0.126,0.467-0.357,0.828-0.697,1.085c-0.34,0.255-0.774,0.384-1.302,0.384
		c-0.664,0-1.192-0.205-1.581-0.614c-0.39-0.409-0.585-0.983-0.585-1.722c0-0.766,0.198-1.359,0.591-1.782
		c0.395-0.422,0.904-0.635,1.533-0.635c0.607,0,1.104,0.208,1.488,0.622c0.386,0.413,0.579,0.996,0.579,1.746
		c0,0.046-0.002,0.116-0.005,0.207h-3.39c0.027,0.5,0.169,0.883,0.424,1.146c0.254,0.266,0.57,0.399,0.95,0.399
		c0.281,0,0.522-0.075,0.723-0.224C180.011,40.396,180.169,40.159,180.286,39.833L180.286,39.833z M177.756,38.587h2.538
		c-0.033-0.381-0.131-0.669-0.29-0.859c-0.246-0.296-0.564-0.446-0.954-0.446c-0.354,0-0.652,0.119-0.894,0.355
		C177.917,37.874,177.783,38.191,177.756,38.587L177.756,38.587z M186.292,41.297v-4.546h0.692v0.646
		c0.335-0.5,0.816-0.751,1.447-0.751c0.274,0,0.525,0.051,0.755,0.148c0.231,0.1,0.401,0.229,0.516,0.389
		c0.115,0.159,0.194,0.35,0.241,0.569c0.027,0.143,0.042,0.393,0.042,0.749v2.795h-0.771v-2.766c0-0.313-0.029-0.548-0.089-0.705
		c-0.06-0.155-0.166-0.279-0.318-0.371c-0.153-0.094-0.331-0.14-0.538-0.14c-0.328,0-0.61,0.105-0.851,0.313
		c-0.237,0.209-0.356,0.604-0.356,1.187v2.482H186.292L186.292,41.297z M197.089,40.608l0.111,0.681
		c-0.217,0.045-0.411,0.069-0.582,0.069c-0.28,0-0.497-0.044-0.651-0.133c-0.154-0.088-0.262-0.205-0.324-0.35
		c-0.063-0.143-0.096-0.447-0.096-0.909v-2.616h-0.565v-0.599h0.565v-1.126l0.768-0.462v1.588h0.774v0.599h-0.774v2.658
		c0,0.221,0.013,0.361,0.039,0.424c0.028,0.063,0.072,0.111,0.133,0.15c0.062,0.037,0.149,0.055,0.264,0.055
		C196.836,40.638,196.949,40.628,197.089,40.608L197.089,40.608z M201.795,39.024c0-0.842,0.233-1.466,0.703-1.87
		c0.391-0.336,0.866-0.507,1.429-0.507c0.625,0,1.137,0.205,1.533,0.616c0.397,0.409,0.595,0.975,0.595,1.696
		c0,0.586-0.088,1.046-0.264,1.381c-0.176,0.336-0.431,0.596-0.766,0.782c-0.336,0.185-0.701,0.277-1.099,0.277
		c-0.636,0-1.15-0.203-1.543-0.612C201.992,40.38,201.795,39.792,201.795,39.024L201.795,39.024z M202.587,39.024
		c0,0.583,0.127,1.019,0.381,1.308c0.254,0.291,0.574,0.436,0.959,0.436c0.383,0,0.701-0.147,0.956-0.437
		c0.253-0.291,0.379-0.735,0.379-1.332c0-0.563-0.126-0.989-0.382-1.278c-0.256-0.289-0.573-0.434-0.953-0.434
		c-0.385,0-0.705,0.145-0.959,0.432C202.714,38.007,202.587,38.442,202.587,39.024L202.587,39.024z M210.891,39.939l0.762-0.12
		c0.042,0.306,0.161,0.54,0.357,0.703c0.194,0.162,0.468,0.244,0.819,0.244c0.354,0,0.617-0.074,0.787-0.217
		c0.173-0.144,0.258-0.313,0.258-0.507c0-0.175-0.076-0.311-0.228-0.412c-0.105-0.069-0.367-0.155-0.788-0.26
		c-0.563-0.144-0.957-0.266-1.175-0.371c-0.217-0.104-0.384-0.249-0.496-0.433c-0.113-0.184-0.17-0.387-0.17-0.609
		c0-0.203,0.047-0.39,0.141-0.563c0.092-0.174,0.219-0.317,0.379-0.431c0.118-0.088,0.282-0.164,0.488-0.225
		c0.208-0.062,0.43-0.093,0.667-0.093c0.355,0,0.669,0.053,0.939,0.156c0.271,0.103,0.469,0.242,0.598,0.417
		c0.129,0.177,0.216,0.411,0.265,0.704l-0.753,0.103c-0.035-0.232-0.135-0.416-0.298-0.547c-0.163-0.132-0.396-0.198-0.695-0.198
		c-0.354,0-0.606,0.059-0.758,0.176c-0.151,0.117-0.228,0.254-0.228,0.411c0,0.101,0.032,0.189,0.096,0.27
		c0.063,0.083,0.16,0.15,0.295,0.206c0.077,0.028,0.303,0.094,0.681,0.196c0.545,0.146,0.925,0.265,1.14,0.358
		c0.217,0.092,0.386,0.228,0.509,0.405c0.122,0.177,0.184,0.396,0.184,0.659c0,0.257-0.075,0.498-0.225,0.726
		c-0.15,0.227-0.367,0.402-0.649,0.525c-0.281,0.125-0.601,0.186-0.958,0.186c-0.592,0-1.042-0.123-1.352-0.368
		S210.976,40.422,210.891,39.939"/>
</g>
</svg>
